<?xml version="1.0" encoding="utf-8" standalone="no"?>
<!DOCTYPE svg PUBLIC "-//W3C//DTD SVG 1.1//EN"
  "http://www.w3.org/Graphics/SVG/1.1/DTD/svg11.dtd">
<!-- Created with matplotlib (http://matplotlib.org/) -->
<svg height="432pt" version="1.1" viewBox="0 0 576 432" width="576pt" xmlns="http://www.w3.org/2000/svg" xmlns:xlink="http://www.w3.org/1999/xlink">
 <defs>
  <style type="text/css">
*{stroke-linecap:butt;stroke-linejoin:round;stroke-miterlimit:100000;}
  </style>
 </defs>
 <g id="figure_1">
  <g id="patch_1">
   <path d="M 0 432 
L 576 432 
L 576 0 
L 0 0 
z
" style="fill:#ffffff;"/>
  </g>
  <g id="axes_1">
   <g id="patch_2">
    <path d="M 72 388.8 
L 518.4 388.8 
L 518.4 43.2 
L 72 43.2 
z
" style="fill:#ffffff;"/>
   </g>
   <g id="line2d_1">
    <path clip-path="url(#p003074c101)" d="M 72 227.4048 
L 72.084088 -1 
M 78.167167 -1 
L 78.2496 0.6912 
L 79.1424 58.0608 
L 80.0352 96.4224 
L 80.928 108.1728 
L 81.8208 108.864 
L 82.7136 144.1152 
L 83.6064 144.8064 
L 84.4992 161.7408 
L 85.392 168.6528 
L 86.2848 180.0576 
L 87.1776 203.904 
L 88.0704 185.9328 
L 88.9632 208.0512 
L 89.856 227.4048 
L 90.7488 229.824 
L 91.6416 229.1328 
L 92.5344 235.008 
L 93.4272 232.9344 
L 94.32 241.2288 
L 95.2128 242.2656 
L 96.1056 240.8832 
L 96.9984 246.7584 
L 97.8912 257.1264 
L 98.784 262.656 
L 99.6768 253.3248 
L 100.5696 256.7808 
L 101.4624 269.2224 
L 102.3552 276.8256 
L 103.248 271.6416 
L 104.1408 286.848 
L 105.0336 285.8112 
L 105.9264 283.0464 
L 106.8192 288.2304 
L 107.712 288.9216 
L 108.6048 283.0464 
L 109.4976 290.9952 
L 110.3904 296.5248 
L 111.2832 292.032 
L 112.176 300.3264 
L 113.0688 299.9808 
L 113.9616 300.3264 
L 114.8544 314.496 
L 115.7472 294.4512 
L 116.64 310.6944 
L 117.5328 307.9296 
L 118.4256 308.9664 
L 119.3184 303.4368 
L 120.2112 316.224 
L 121.104 310.0032 
L 121.9968 321.0624 
L 122.8896 323.136 
L 123.7824 320.3712 
L 124.6752 321.408 
L 125.568 312.0768 
L 126.4608 318.6432 
L 128.2464 321.408 
L 129.1392 327.9744 
L 130.032 327.6288 
L 130.9248 324.5184 
L 131.8176 329.0112 
L 132.7104 321.408 
L 133.6032 326.9376 
L 134.496 333.8496 
L 135.3888 331.4304 
L 136.2816 336.6144 
L 137.1744 331.776 
L 138.0672 333.1584 
L 138.96 333.8496 
L 139.8528 336.6144 
L 140.7456 342.144 
L 141.6384 340.7616 
L 142.5312 346.6368 
L 143.424 350.4384 
L 144.3168 337.9968 
L 145.2096 341.4528 
L 146.1024 332.4672 
L 146.9952 342.144 
L 147.888 342.8352 
L 148.7808 342.4896 
L 149.6736 337.9968 
L 150.5664 342.4896 
L 151.4592 345.9456 
L 152.352 342.4896 
L 153.2448 345.9456 
L 154.1376 342.4896 
L 155.0304 350.0928 
L 155.9232 343.5264 
L 156.816 348.3648 
L 157.7088 342.144 
L 158.6016 350.784 
L 159.4944 353.2032 
L 160.3872 350.0928 
L 161.28 355.2768 
L 162.1728 351.4752 
L 163.0656 348.7104 
L 163.9584 349.4016 
L 164.8512 354.9312 
L 165.744 356.3136 
L 166.6368 349.4016 
L 167.5296 356.6592 
L 168.4224 350.784 
L 169.3152 353.8944 
L 170.208 349.056 
L 171.1008 359.0784 
L 171.9936 357.3504 
L 172.8864 358.0416 
L 173.7792 357.0048 
L 174.672 357.0048 
L 175.5648 358.0416 
L 176.4576 356.3136 
L 177.3504 363.9168 
L 178.2432 356.6592 
L 179.136 359.7696 
L 180.0288 361.8432 
L 180.9216 356.6592 
L 181.8144 357.0048 
L 182.7072 356.3136 
L 183.6 363.5712 
L 184.4928 362.88 
L 185.3856 356.3136 
L 186.2784 359.0784 
L 187.1712 355.6224 
L 188.064 365.6448 
L 188.9568 365.6448 
L 189.8496 367.0272 
L 190.7424 360.8064 
L 191.6352 364.608 
L 192.528 358.7328 
L 193.4208 365.6448 
L 194.3136 361.4976 
L 195.2064 360.8064 
L 196.0992 365.6448 
L 196.992 363.9168 
L 197.8848 363.9168 
L 198.7776 367.3728 
L 199.6704 365.9904 
L 200.5632 362.5344 
L 201.456 363.2256 
L 202.3488 362.5344 
L 203.2416 367.7184 
L 204.1344 368.064 
L 205.0272 369.4464 
L 205.92 369.792 
L 206.8128 364.608 
L 207.7056 370.1376 
L 208.5984 358.7328 
L 209.4912 369.4464 
L 210.384 371.52 
L 211.2768 365.6448 
L 212.1696 364.608 
L 213.0624 362.5344 
L 213.9552 366.6816 
L 214.848 364.608 
L 215.7408 366.6816 
L 216.6336 369.1008 
L 217.5264 371.8656 
L 219.312 371.1744 
L 220.2048 367.7184 
L 221.0976 369.792 
L 221.9904 373.9392 
L 222.8832 372.2112 
L 223.776 369.4464 
L 224.6688 369.4464 
L 225.5616 370.8288 
L 226.4544 367.7184 
L 227.3472 371.1744 
L 228.24 372.2112 
L 229.1328 372.5568 
L 230.0256 368.4096 
L 230.9184 369.1008 
L 231.8112 370.8288 
L 232.704 365.9904 
L 233.5968 370.4832 
L 234.4896 370.4832 
L 235.3824 371.52 
L 236.2752 369.4464 
L 238.0608 370.1376 
L 238.9536 373.248 
L 239.8464 370.4832 
L 240.7392 371.8656 
L 241.632 371.52 
L 242.5248 375.3216 
L 243.4176 368.4096 
L 244.3104 373.9392 
L 245.2032 372.2112 
L 246.096 372.5568 
L 246.9888 372.5568 
L 247.8816 374.2848 
L 248.7744 370.4832 
L 249.6672 369.4464 
L 251.4528 370.8288 
L 252.3456 373.9392 
L 254.1312 371.1744 
L 255.024 371.8656 
L 255.9168 376.3584 
L 256.8096 375.3216 
L 257.7024 377.7408 
L 258.5952 373.248 
L 259.488 372.9024 
L 260.3808 377.0496 
L 261.2736 375.6672 
L 262.1664 374.976 
L 263.0592 372.9024 
L 263.952 373.248 
L 264.8448 376.0128 
L 265.7376 371.1744 
L 267.5232 373.9392 
L 268.416 378.7776 
L 269.3088 377.7408 
L 270.2016 374.976 
L 271.0944 374.976 
L 271.9872 375.3216 
L 272.88 376.3584 
L 273.7728 371.8656 
L 274.6656 378.7776 
L 275.5584 373.9392 
L 276.4512 374.2848 
L 277.344 379.8144 
L 278.2368 375.3216 
L 279.1296 380.16 
L 280.0224 379.4688 
L 280.9152 380.8512 
L 282.7008 374.2848 
L 283.5936 376.704 
L 284.4864 376.3584 
L 285.3792 376.704 
L 286.272 378.432 
L 287.1648 372.2112 
L 288.0576 376.0128 
L 288.9504 380.5056 
L 289.8432 377.3952 
L 290.736 380.5056 
L 291.6288 376.3584 
L 292.5216 380.16 
L 293.4144 377.3952 
L 294.3072 379.4688 
L 295.2 375.6672 
L 296.0928 377.7408 
L 296.9856 376.704 
L 297.8784 376.704 
L 298.7712 377.7408 
L 299.664 379.1232 
L 300.5568 382.5792 
L 301.4496 377.0496 
L 302.3424 376.704 
L 303.2352 379.1232 
L 304.128 377.0496 
L 305.0208 374.6304 
L 305.9136 378.7776 
L 306.8064 376.3584 
L 307.6992 380.8512 
L 308.592 376.704 
L 309.4848 379.1232 
L 310.3776 378.0864 
L 311.2704 378.7776 
L 312.1632 380.8512 
L 313.056 374.6304 
L 313.9488 378.432 
L 314.8416 381.1968 
L 315.7344 378.0864 
L 316.6272 380.16 
L 317.52 379.1232 
L 318.4128 380.5056 
L 319.3056 380.5056 
L 320.1984 377.7408 
L 321.0912 379.4688 
L 321.984 379.1232 
L 322.8768 381.1968 
L 323.7696 379.8144 
L 324.6624 377.7408 
L 325.5552 378.432 
L 326.448 376.704 
L 327.3408 378.0864 
L 328.2336 378.7776 
L 329.1264 378.432 
L 330.0192 381.1968 
L 331.8048 379.8144 
L 332.6976 378.0864 
L 333.5904 380.16 
L 334.4832 377.3952 
L 335.376 379.8144 
L 336.2688 385.6896 
L 337.1616 379.4688 
L 338.0544 380.16 
L 338.9472 381.5424 
L 339.84 381.5424 
L 340.7328 380.8512 
L 341.6256 381.1968 
L 342.5184 380.5056 
L 343.4112 378.0864 
L 344.304 380.5056 
L 345.1968 381.5424 
L 346.0896 380.8512 
L 346.9824 380.5056 
L 347.8752 379.4688 
L 348.768 380.16 
L 349.6608 382.2336 
L 350.5536 379.1232 
L 351.4464 382.2336 
L 352.3392 380.16 
L 353.232 380.5056 
L 354.1248 378.432 
L 355.0176 379.4688 
L 355.9104 381.5424 
L 356.8032 379.4688 
L 357.696 381.5424 
L 358.5888 380.16 
L 359.4816 383.616 
L 360.3744 380.16 
L 361.2672 381.5424 
L 362.16 381.5424 
L 363.0528 383.616 
L 363.9456 379.4688 
L 364.8384 380.8512 
L 365.7312 381.1968 
L 366.624 383.2704 
L 367.5168 379.1232 
L 368.4096 381.5424 
L 369.3024 384.6528 
L 370.1952 382.2336 
L 371.9808 381.5424 
L 372.8736 379.4688 
L 373.7664 379.1232 
L 374.6592 380.16 
L 376.4448 383.616 
L 377.3376 379.8144 
L 378.2304 382.5792 
L 379.1232 382.9248 
L 380.016 382.2336 
L 380.9088 382.9248 
L 381.8016 384.6528 
L 382.6944 381.5424 
L 383.5872 383.2704 
L 384.48 381.1968 
L 385.3728 380.8512 
L 386.2656 383.9616 
L 387.1584 384.3072 
L 388.0512 379.8144 
L 388.944 384.6528 
L 389.8368 382.5792 
L 390.7296 382.9248 
L 392.5152 380.8512 
L 393.408 380.16 
L 394.3008 381.888 
L 395.1936 382.2336 
L 396.0864 383.616 
L 396.9792 382.9248 
L 397.872 382.5792 
L 398.7648 381.888 
L 399.6576 383.2704 
L 400.5504 380.5056 
L 401.4432 381.5424 
L 402.336 382.9248 
L 403.2288 384.6528 
L 404.1216 384.3072 
L 405.0144 381.1968 
L 405.9072 384.3072 
L 406.8 385.6896 
L 407.6928 381.5424 
L 408.5856 383.2704 
L 409.4784 381.888 
L 410.3712 381.888 
L 411.264 382.2336 
L 412.1568 384.3072 
L 413.0496 383.9616 
L 413.9424 382.9248 
L 414.8352 383.9616 
L 416.6208 381.888 
L 417.5136 385.6896 
L 418.4064 383.616 
L 419.2992 384.9984 
L 420.192 383.9616 
L 421.0848 382.5792 
L 421.9776 382.9248 
L 422.8704 381.5424 
L 423.7632 384.9984 
L 424.656 381.888 
L 425.5488 382.5792 
L 426.4416 382.5792 
L 427.3344 384.3072 
L 428.2272 384.9984 
L 429.12 382.2336 
L 430.0128 384.3072 
L 430.9056 384.3072 
L 431.7984 383.9616 
L 432.6912 383.2704 
L 433.584 384.3072 
L 434.4768 381.5424 
L 435.3696 381.888 
L 437.1552 383.9616 
L 438.048 383.616 
L 438.9408 386.7264 
L 439.8336 385.344 
L 440.7264 381.888 
L 441.6192 386.0352 
L 442.512 381.888 
L 443.4048 384.3072 
L 444.2976 384.6528 
L 445.1904 385.344 
L 446.0832 383.2704 
L 446.976 381.5424 
L 447.8688 386.3808 
L 448.7616 383.9616 
L 449.6544 383.616 
L 450.5472 384.3072 
L 451.44 384.3072 
L 452.3328 382.2336 
L 453.2256 380.8512 
L 454.1184 384.6528 
L 455.0112 382.9248 
L 455.904 386.3808 
L 456.7968 384.6528 
L 457.6896 384.9984 
L 459.4752 383.616 
L 460.368 386.0352 
L 461.2608 383.9616 
L 462.1536 381.1968 
L 463.0464 383.2704 
L 463.9392 382.5792 
L 464.832 384.9984 
L 465.7248 382.2336 
L 466.6176 383.9616 
L 467.5104 383.616 
L 468.4032 385.6896 
L 469.296 383.9616 
L 470.1888 383.2704 
L 471.0816 385.344 
L 471.9744 384.3072 
L 472.8672 384.9984 
L 473.76 381.888 
L 474.6528 383.9616 
L 475.5456 385.344 
L 476.4384 384.9984 
L 477.3312 381.1968 
L 478.224 383.9616 
L 479.1168 384.9984 
L 480.0096 385.344 
L 480.9024 385.344 
L 481.7952 384.6528 
L 482.688 385.344 
L 483.5808 383.2704 
L 484.4736 384.9984 
L 485.3664 383.616 
L 486.2592 386.0352 
L 487.152 384.6528 
L 488.0448 387.4176 
L 488.9376 384.6528 
L 489.8304 384.6528 
L 490.7232 383.9616 
L 491.616 383.9616 
L 492.5088 385.344 
L 494.2944 383.9616 
L 495.1872 383.9616 
L 496.08 385.6896 
L 496.9728 383.616 
L 497.8656 382.9248 
L 498.7584 384.6528 
L 499.6512 382.9248 
L 500.544 385.6896 
L 501.4368 385.6896 
L 502.3296 386.3808 
L 503.2224 384.6528 
L 504.1152 385.6896 
L 505.008 383.616 
L 505.9008 384.3072 
L 506.7936 383.2704 
L 507.6864 386.7264 
L 508.5792 384.6528 
L 509.472 384.3072 
L 510.3648 386.0352 
L 511.2576 385.6896 
L 512.1504 384.6528 
L 513.0432 385.6896 
L 513.936 383.9616 
L 514.8288 385.344 
L 515.7216 384.9984 
L 516.6144 385.6896 
L 517.5072 383.2704 
L 518.4 385.6896 
L 519.2928 385.344 
L 519.2928 385.344 
" style="fill:none;stroke:#0000ff;stroke-linecap:square;"/>
   </g>
   <g id="line2d_2">
    <path clip-path="url(#p003074c101)" d="M 72.113886 -1 
L 72.8928 320.7168 
L 73.7856 316.9152 
L 74.6784 318.2976 
L 75.5712 322.7904 
L 76.464 321.0624 
L 77.3568 321.408 
L 78.2496 322.4448 
L 79.1424 321.7536 
L 80.0352 318.9888 
L 80.928 293.0688 
L 81.8208 316.5696 
L 82.7136 307.584 
L 83.6064 313.8048 
L 84.4992 306.5472 
L 85.392 313.1136 
L 86.2848 316.9152 
L 87.1776 313.8048 
L 88.0704 305.856 
L 88.9632 307.2384 
L 89.856 310.3488 
L 90.7488 299.6352 
L 91.6416 307.2384 
L 92.5344 304.128 
L 93.4272 304.4736 
L 94.32 296.5248 
L 95.2128 297.9072 
L 96.1056 297.216 
L 96.9984 292.3776 
L 97.8912 294.4512 
L 98.784 286.848 
L 99.6768 287.8848 
L 100.5696 287.8848 
L 101.4624 286.5024 
L 102.3552 286.848 
L 103.248 286.1568 
L 104.1408 281.3184 
L 105.0336 290.9952 
L 105.9264 292.032 
L 106.8192 294.1056 
L 107.712 291.6864 
L 108.6048 288.2304 
L 109.4976 298.5984 
L 110.3904 287.5392 
L 111.2832 294.4512 
L 112.176 283.7376 
L 113.0688 283.7376 
L 113.9616 283.0464 
L 114.8544 295.8336 
L 115.7472 303.4368 
L 116.64 288.9216 
L 117.5328 291.3408 
L 118.4256 290.304 
L 119.3184 301.7088 
L 120.2112 295.1424 
L 121.104 301.3632 
L 121.9968 302.0544 
L 122.8896 292.7232 
L 123.7824 289.2672 
L 124.6752 284.4288 
L 125.568 300.672 
L 126.4608 300.3264 
L 127.3536 307.584 
L 128.2464 303.4368 
L 129.1392 307.2384 
L 130.032 301.7088 
L 130.9248 303.0912 
L 131.8176 287.1936 
L 132.7104 294.4512 
L 133.6032 294.4512 
L 134.496 304.4736 
L 135.3888 301.0176 
L 136.2816 302.7456 
L 137.1744 295.1424 
L 138.0672 303.4368 
L 138.96 301.0176 
L 139.8528 297.5616 
L 140.7456 302.0544 
L 141.6384 291.6864 
L 142.5312 295.1424 
L 143.424 296.5248 
L 144.3168 309.312 
L 145.2096 301.7088 
L 146.1024 302.7456 
L 146.9952 301.0176 
L 147.888 298.2528 
L 148.7808 301.3632 
L 149.6736 305.856 
L 150.5664 309.312 
L 151.4592 298.5984 
L 152.352 296.1792 
L 153.2448 308.6208 
L 154.1376 299.6352 
L 155.0304 302.4 
L 155.9232 310.3488 
L 157.7088 313.1136 
L 158.6016 317.952 
L 159.4944 307.9296 
L 161.28 312.768 
L 162.1728 304.4736 
L 163.0656 313.8048 
L 163.9584 311.04 
L 164.8512 311.3856 
L 165.744 314.1504 
L 166.6368 315.8784 
L 167.5296 317.2608 
L 168.4224 302.4 
L 169.3152 308.6208 
L 170.208 311.7312 
L 171.1008 316.5696 
L 171.9936 312.768 
L 172.8864 310.0032 
L 173.7792 315.8784 
L 174.672 306.8928 
L 175.5648 313.8048 
L 176.4576 308.6208 
L 177.3504 320.3712 
L 178.2432 320.7168 
L 179.136 313.8048 
L 180.0288 314.496 
L 180.9216 316.5696 
L 181.8144 326.592 
L 182.7072 316.224 
L 183.6 311.04 
L 184.4928 330.7392 
L 185.3856 319.3344 
L 186.2784 311.3856 
L 187.1712 318.6432 
L 188.064 322.4448 
L 188.9568 310.3488 
L 189.8496 327.2832 
L 190.7424 319.68 
L 191.6352 315.8784 
L 192.528 323.4816 
L 193.4208 321.0624 
L 194.3136 322.0992 
L 195.2064 328.32 
L 196.0992 326.592 
L 196.992 332.1216 
L 197.8848 333.8496 
L 198.7776 322.4448 
L 199.6704 333.504 
L 200.5632 330.7392 
L 201.456 330.7392 
L 202.3488 324.864 
L 203.2416 327.6288 
L 204.1344 328.6656 
L 205.0272 332.1216 
L 205.92 326.592 
L 206.8128 322.0992 
L 207.7056 329.7024 
L 208.5984 336.2688 
L 209.4912 329.7024 
L 210.384 327.2832 
L 211.2768 332.4672 
L 212.1696 327.6288 
L 213.0624 331.776 
L 213.9552 331.0848 
L 214.848 324.864 
L 215.7408 328.32 
L 216.6336 324.5184 
L 217.5264 329.3568 
L 218.4192 326.2464 
L 219.312 337.9968 
L 220.2048 331.776 
L 221.0976 340.416 
L 221.9904 333.504 
L 222.8832 336.6144 
L 223.776 343.5264 
L 224.6688 342.8352 
L 225.5616 332.8128 
L 226.4544 339.0336 
L 227.3472 338.3424 
L 228.24 331.0848 
L 229.1328 342.4896 
L 230.0256 343.872 
L 230.9184 341.7984 
L 231.8112 338.3424 
L 232.704 345.9456 
L 233.5968 337.3056 
L 234.4896 342.144 
L 235.3824 350.0928 
L 237.168 339.7248 
L 238.0608 341.4528 
L 238.9536 336.96 
L 239.8464 338.3424 
L 240.7392 343.1808 
L 241.632 345.6 
L 242.5248 343.5264 
L 243.4176 340.416 
L 244.3104 343.5264 
L 246.096 340.0704 
L 246.9888 348.7104 
L 247.8816 343.1808 
L 248.7744 348.3648 
L 249.6672 350.4384 
L 250.56 345.6 
L 251.4528 343.1808 
L 252.3456 345.9456 
L 253.2384 338.688 
L 254.1312 350.784 
L 255.024 345.9456 
L 255.9168 344.2176 
L 256.8096 333.8496 
L 257.7024 348.7104 
L 258.5952 354.9312 
L 259.488 352.8576 
L 260.3808 351.1296 
L 261.2736 345.2544 
L 262.1664 356.3136 
L 263.0592 349.4016 
L 263.952 352.512 
L 264.8448 345.9456 
L 265.7376 341.7984 
L 266.6304 358.3872 
L 267.5232 341.4528 
L 268.416 351.1296 
L 269.3088 352.8576 
L 270.2016 350.4384 
L 271.0944 348.3648 
L 271.9872 355.6224 
L 272.88 350.4384 
L 273.7728 355.2768 
L 274.6656 359.424 
L 275.5584 357.3504 
L 276.4512 347.328 
L 277.344 354.5856 
L 278.2368 348.3648 
L 279.1296 349.4016 
L 280.0224 361.152 
L 280.9152 351.8208 
L 281.808 359.0784 
L 282.7008 353.5488 
L 283.5936 350.4384 
L 284.4864 358.3872 
L 285.3792 363.2256 
L 286.272 358.3872 
L 287.1648 356.6592 
L 288.0576 353.2032 
L 288.9504 357.696 
L 289.8432 360.1152 
L 290.736 355.2768 
L 291.6288 358.0416 
L 292.5216 353.2032 
L 293.4144 353.2032 
L 294.3072 362.1888 
L 295.2 357.0048 
L 296.0928 358.0416 
L 296.9856 359.424 
L 297.8784 359.424 
L 298.7712 357.3504 
L 299.664 358.3872 
L 300.5568 361.152 
L 301.4496 362.88 
L 302.3424 358.0416 
L 303.2352 360.8064 
L 304.128 357.0048 
L 305.0208 360.1152 
L 305.9136 364.608 
L 306.8064 364.608 
L 307.6992 362.88 
L 309.4848 356.6592 
L 310.3776 358.7328 
L 311.2704 361.4976 
L 312.1632 361.8432 
L 313.056 363.9168 
L 314.8416 363.2256 
L 315.7344 356.6592 
L 316.6272 361.152 
L 317.52 367.7184 
L 318.4128 366.6816 
L 319.3056 363.9168 
L 320.1984 368.064 
L 321.0912 363.2256 
L 321.984 360.4608 
L 322.8768 366.336 
L 323.7696 360.4608 
L 324.6624 368.4096 
L 325.5552 364.2624 
L 326.448 367.0272 
L 327.3408 361.152 
L 328.2336 362.1888 
L 329.1264 364.608 
L 330.0192 368.064 
L 330.912 366.6816 
L 332.6976 367.3728 
L 333.5904 367.3728 
L 334.4832 364.608 
L 335.376 367.0272 
L 336.2688 364.2624 
L 337.1616 368.064 
L 338.0544 362.88 
L 338.9472 371.8656 
L 339.84 365.2992 
L 340.7328 369.792 
L 341.6256 367.0272 
L 342.5184 364.9536 
L 343.4112 367.0272 
L 344.304 368.4096 
L 345.1968 367.0272 
L 346.0896 368.064 
L 346.9824 363.5712 
L 347.8752 368.4096 
L 348.768 370.1376 
L 349.6608 364.9536 
L 350.5536 370.4832 
L 351.4464 365.9904 
L 352.3392 364.608 
L 353.232 371.52 
L 354.1248 369.792 
L 355.0176 367.3728 
L 355.9104 365.6448 
L 356.8032 367.3728 
L 357.696 369.4464 
L 358.5888 367.7184 
L 359.4816 368.7552 
L 360.3744 371.8656 
L 361.2672 369.792 
L 362.16 373.5936 
L 363.9456 367.0272 
L 364.8384 370.4832 
L 365.7312 372.2112 
L 366.624 371.1744 
L 367.5168 369.792 
L 368.4096 368.064 
L 369.3024 370.4832 
L 370.1952 370.8288 
L 371.088 368.064 
L 371.9808 375.3216 
L 372.8736 371.52 
L 373.7664 370.4832 
L 374.6592 370.1376 
L 375.552 372.2112 
L 376.4448 371.52 
L 377.3376 367.3728 
L 378.2304 370.8288 
L 380.016 368.064 
L 380.9088 373.9392 
L 381.8016 372.2112 
L 382.6944 373.248 
L 383.5872 369.4464 
L 384.48 374.2848 
L 385.3728 373.5936 
L 386.2656 373.248 
L 387.1584 373.5936 
L 388.0512 372.9024 
L 388.944 377.7408 
L 389.8368 370.8288 
L 390.7296 375.3216 
L 391.6224 374.976 
L 392.5152 371.8656 
L 393.408 374.976 
L 395.1936 374.976 
L 396.0864 371.52 
L 396.9792 375.6672 
L 397.872 371.8656 
L 398.7648 370.1376 
L 399.6576 376.3584 
L 400.5504 372.9024 
L 401.4432 372.9024 
L 402.336 378.0864 
L 403.2288 373.248 
L 404.1216 373.5936 
L 405.0144 372.2112 
L 405.9072 374.6304 
L 406.8 374.2848 
L 407.6928 371.8656 
L 408.5856 373.9392 
L 409.4784 378.432 
L 410.3712 372.5568 
L 411.264 377.3952 
L 412.1568 374.976 
L 413.0496 378.0864 
L 413.9424 379.1232 
L 414.8352 374.6304 
L 415.728 377.7408 
L 416.6208 377.7408 
L 417.5136 374.6304 
L 418.4064 377.7408 
L 419.2992 377.3952 
L 420.192 377.7408 
L 421.0848 375.3216 
L 421.9776 380.8512 
L 422.8704 376.3584 
L 423.7632 378.0864 
L 424.656 378.7776 
L 425.5488 377.3952 
L 426.4416 375.3216 
L 427.3344 379.1232 
L 428.2272 376.704 
L 429.12 381.888 
L 430.0128 378.7776 
L 430.9056 379.1232 
L 431.7984 378.0864 
L 432.6912 379.4688 
L 433.584 378.432 
L 434.4768 376.0128 
L 435.3696 376.704 
L 436.2624 373.5936 
L 437.1552 379.4688 
L 438.048 378.432 
L 438.9408 380.8512 
L 439.8336 378.432 
L 440.7264 378.432 
L 441.6192 376.0128 
L 442.512 377.7408 
L 443.4048 377.0496 
L 444.2976 375.3216 
L 445.1904 378.0864 
L 446.0832 378.432 
L 446.976 377.7408 
L 447.8688 376.3584 
L 450.5472 378.432 
L 451.44 379.8144 
L 452.3328 380.16 
L 453.2256 379.1232 
L 454.1184 377.7408 
L 455.0112 378.432 
L 455.904 377.3952 
L 456.7968 377.0496 
L 457.6896 376.0128 
L 458.5824 375.6672 
L 459.4752 379.1232 
L 460.368 379.8144 
L 461.2608 379.8144 
L 462.1536 380.16 
L 463.0464 380.8512 
L 463.9392 378.432 
L 464.832 382.2336 
L 465.7248 381.1968 
L 466.6176 380.5056 
L 467.5104 378.432 
L 468.4032 379.8144 
L 469.296 379.8144 
L 470.1888 376.3584 
L 471.0816 379.1232 
L 471.9744 381.1968 
L 472.8672 380.16 
L 473.76 377.7408 
L 474.6528 377.3952 
L 475.5456 378.7776 
L 476.4384 379.8144 
L 477.3312 378.7776 
L 478.224 379.8144 
L 479.1168 381.5424 
L 480.0096 380.8512 
L 480.9024 379.8144 
L 481.7952 381.1968 
L 482.688 378.7776 
L 483.5808 381.888 
L 484.4736 375.6672 
L 485.3664 380.8512 
L 486.2592 380.16 
L 487.152 374.6304 
L 488.0448 379.8144 
L 488.9376 380.5056 
L 489.8304 382.2336 
L 490.7232 380.8512 
L 491.616 382.2336 
L 493.4016 382.9248 
L 494.2944 381.888 
L 495.1872 380.5056 
L 496.08 382.2336 
L 497.8656 382.9248 
L 498.7584 381.1968 
L 499.6512 380.16 
L 500.544 383.9616 
L 501.4368 378.7776 
L 502.3296 382.2336 
L 503.2224 381.1968 
L 504.1152 382.2336 
L 505.008 379.4688 
L 505.9008 381.1968 
L 506.7936 383.2704 
L 507.6864 383.616 
L 508.5792 381.5424 
L 509.472 382.2336 
L 510.3648 382.5792 
L 511.2576 383.616 
L 512.1504 382.5792 
L 513.0432 382.5792 
L 513.936 381.1968 
L 514.8288 381.1968 
L 515.7216 383.9616 
L 516.6144 381.888 
L 517.5072 380.8512 
L 518.4 383.616 
L 519.2928 380.8512 
L 519.2928 380.8512 
" style="fill:none;stroke:#008000;stroke-linecap:square;"/>
   </g>
   <g id="patch_3">
    <path d="M 72 43.2 
L 518.4 43.2 
" style="fill:none;stroke:#000000;stroke-linecap:square;stroke-linejoin:miter;"/>
   </g>
   <g id="patch_4">
    <path d="M 518.4 388.8 
L 518.4 43.2 
" style="fill:none;stroke:#000000;stroke-linecap:square;stroke-linejoin:miter;"/>
   </g>
   <g id="patch_5">
    <path d="M 72 388.8 
L 518.4 388.8 
" style="fill:none;stroke:#000000;stroke-linecap:square;stroke-linejoin:miter;"/>
   </g>
   <g id="patch_6">
    <path d="M 72 388.8 
L 72 43.2 
" style="fill:none;stroke:#000000;stroke-linecap:square;stroke-linejoin:miter;"/>
   </g>
   <g id="matplotlib.axis_1">
    <g id="xtick_1">
     <g id="line2d_3">
      <defs>
       <path d="M 0 0 
L 0 -4 
" id="m785f9535c6" style="stroke:#000000;stroke-width:0.5;"/>
      </defs>
      <g>
       <use style="stroke:#000000;stroke-width:0.5;" x="72.0" xlink:href="#m785f9535c6" y="388.8"/>
      </g>
     </g>
     <g id="line2d_4">
      <defs>
       <path d="M 0 0 
L 0 4 
" id="mfa0f1a80db" style="stroke:#000000;stroke-width:0.5;"/>
      </defs>
      <g>
       <use style="stroke:#000000;stroke-width:0.5;" x="72.0" xlink:href="#mfa0f1a80db" y="43.2"/>
      </g>
     </g>
     <g id="text_1">
      <!-- 0 -->
      <defs>
       <path d="M 31.78125 66.40625 
Q 24.171875 66.40625 20.328125 58.90625 
Q 16.5 51.421875 16.5 36.375 
Q 16.5 21.390625 20.328125 13.890625 
Q 24.171875 6.390625 31.78125 6.390625 
Q 39.453125 6.390625 43.28125 13.890625 
Q 47.125 21.390625 47.125 36.375 
Q 47.125 51.421875 43.28125 58.90625 
Q 39.453125 66.40625 31.78125 66.40625 
M 31.78125 74.21875 
Q 44.046875 74.21875 50.515625 64.515625 
Q 56.984375 54.828125 56.984375 36.375 
Q 56.984375 17.96875 50.515625 8.265625 
Q 44.046875 -1.421875 31.78125 -1.421875 
Q 19.53125 -1.421875 13.0625 8.265625 
Q 6.59375 17.96875 6.59375 36.375 
Q 6.59375 54.828125 13.0625 64.515625 
Q 19.53125 74.21875 31.78125 74.21875 
" id="BitstreamVeraSans-Roman-30"/>
      </defs>
      <g transform="translate(68.1825 401.918125)scale(0.12 -0.12)">
       <use xlink:href="#BitstreamVeraSans-Roman-30"/>
      </g>
     </g>
    </g>
    <g id="xtick_2">
     <g id="line2d_5">
      <g>
       <use style="stroke:#000000;stroke-width:0.5;" x="161.28" xlink:href="#m785f9535c6" y="388.8"/>
      </g>
     </g>
     <g id="line2d_6">
      <g>
       <use style="stroke:#000000;stroke-width:0.5;" x="161.28" xlink:href="#mfa0f1a80db" y="43.2"/>
      </g>
     </g>
     <g id="text_2">
      <!-- 100 -->
      <defs>
       <path d="M 12.40625 8.296875 
L 28.515625 8.296875 
L 28.515625 63.921875 
L 10.984375 60.40625 
L 10.984375 69.390625 
L 28.421875 72.90625 
L 38.28125 72.90625 
L 38.28125 8.296875 
L 54.390625 8.296875 
L 54.390625 0 
L 12.40625 0 
z
" id="BitstreamVeraSans-Roman-31"/>
      </defs>
      <g transform="translate(149.8275 401.918125)scale(0.12 -0.12)">
       <use xlink:href="#BitstreamVeraSans-Roman-31"/>
       <use x="63.623046875" xlink:href="#BitstreamVeraSans-Roman-30"/>
       <use x="127.24609375" xlink:href="#BitstreamVeraSans-Roman-30"/>
      </g>
     </g>
    </g>
    <g id="xtick_3">
     <g id="line2d_7">
      <g>
       <use style="stroke:#000000;stroke-width:0.5;" x="250.56" xlink:href="#m785f9535c6" y="388.8"/>
      </g>
     </g>
     <g id="line2d_8">
      <g>
       <use style="stroke:#000000;stroke-width:0.5;" x="250.56" xlink:href="#mfa0f1a80db" y="43.2"/>
      </g>
     </g>
     <g id="text_3">
      <!-- 200 -->
      <defs>
       <path d="M 19.1875 8.296875 
L 53.609375 8.296875 
L 53.609375 0 
L 7.328125 0 
L 7.328125 8.296875 
Q 12.9375 14.109375 22.625 23.890625 
Q 32.328125 33.6875 34.8125 36.53125 
Q 39.546875 41.84375 41.421875 45.53125 
Q 43.3125 49.21875 43.3125 52.78125 
Q 43.3125 58.59375 39.234375 62.25 
Q 35.15625 65.921875 28.609375 65.921875 
Q 23.96875 65.921875 18.8125 64.3125 
Q 13.671875 62.703125 7.8125 59.421875 
L 7.8125 69.390625 
Q 13.765625 71.78125 18.9375 73 
Q 24.125 74.21875 28.421875 74.21875 
Q 39.75 74.21875 46.484375 68.546875 
Q 53.21875 62.890625 53.21875 53.421875 
Q 53.21875 48.921875 51.53125 44.890625 
Q 49.859375 40.875 45.40625 35.40625 
Q 44.1875 33.984375 37.640625 27.21875 
Q 31.109375 20.453125 19.1875 8.296875 
" id="BitstreamVeraSans-Roman-32"/>
      </defs>
      <g transform="translate(239.1075 401.918125)scale(0.12 -0.12)">
       <use xlink:href="#BitstreamVeraSans-Roman-32"/>
       <use x="63.623046875" xlink:href="#BitstreamVeraSans-Roman-30"/>
       <use x="127.24609375" xlink:href="#BitstreamVeraSans-Roman-30"/>
      </g>
     </g>
    </g>
    <g id="xtick_4">
     <g id="line2d_9">
      <g>
       <use style="stroke:#000000;stroke-width:0.5;" x="339.84" xlink:href="#m785f9535c6" y="388.8"/>
      </g>
     </g>
     <g id="line2d_10">
      <g>
       <use style="stroke:#000000;stroke-width:0.5;" x="339.84" xlink:href="#mfa0f1a80db" y="43.2"/>
      </g>
     </g>
     <g id="text_4">
      <!-- 300 -->
      <defs>
       <path d="M 40.578125 39.3125 
Q 47.65625 37.796875 51.625 33 
Q 55.609375 28.21875 55.609375 21.1875 
Q 55.609375 10.40625 48.1875 4.484375 
Q 40.765625 -1.421875 27.09375 -1.421875 
Q 22.515625 -1.421875 17.65625 -0.515625 
Q 12.796875 0.390625 7.625 2.203125 
L 7.625 11.71875 
Q 11.71875 9.328125 16.59375 8.109375 
Q 21.484375 6.890625 26.8125 6.890625 
Q 36.078125 6.890625 40.9375 10.546875 
Q 45.796875 14.203125 45.796875 21.1875 
Q 45.796875 27.640625 41.28125 31.265625 
Q 36.765625 34.90625 28.71875 34.90625 
L 20.21875 34.90625 
L 20.21875 43.015625 
L 29.109375 43.015625 
Q 36.375 43.015625 40.234375 45.921875 
Q 44.09375 48.828125 44.09375 54.296875 
Q 44.09375 59.90625 40.109375 62.90625 
Q 36.140625 65.921875 28.71875 65.921875 
Q 24.65625 65.921875 20.015625 65.03125 
Q 15.375 64.15625 9.8125 62.3125 
L 9.8125 71.09375 
Q 15.4375 72.65625 20.34375 73.4375 
Q 25.25 74.21875 29.59375 74.21875 
Q 40.828125 74.21875 47.359375 69.109375 
Q 53.90625 64.015625 53.90625 55.328125 
Q 53.90625 49.265625 50.4375 45.09375 
Q 46.96875 40.921875 40.578125 39.3125 
" id="BitstreamVeraSans-Roman-33"/>
      </defs>
      <g transform="translate(328.3875 401.918125)scale(0.12 -0.12)">
       <use xlink:href="#BitstreamVeraSans-Roman-33"/>
       <use x="63.623046875" xlink:href="#BitstreamVeraSans-Roman-30"/>
       <use x="127.24609375" xlink:href="#BitstreamVeraSans-Roman-30"/>
      </g>
     </g>
    </g>
    <g id="xtick_5">
     <g id="line2d_11">
      <g>
       <use style="stroke:#000000;stroke-width:0.5;" x="429.12" xlink:href="#m785f9535c6" y="388.8"/>
      </g>
     </g>
     <g id="line2d_12">
      <g>
       <use style="stroke:#000000;stroke-width:0.5;" x="429.12" xlink:href="#mfa0f1a80db" y="43.2"/>
      </g>
     </g>
     <g id="text_5">
      <!-- 400 -->
      <defs>
       <path d="M 37.796875 64.3125 
L 12.890625 25.390625 
L 37.796875 25.390625 
z
M 35.203125 72.90625 
L 47.609375 72.90625 
L 47.609375 25.390625 
L 58.015625 25.390625 
L 58.015625 17.1875 
L 47.609375 17.1875 
L 47.609375 0 
L 37.796875 0 
L 37.796875 17.1875 
L 4.890625 17.1875 
L 4.890625 26.703125 
z
" id="BitstreamVeraSans-Roman-34"/>
      </defs>
      <g transform="translate(417.6675 401.918125)scale(0.12 -0.12)">
       <use xlink:href="#BitstreamVeraSans-Roman-34"/>
       <use x="63.623046875" xlink:href="#BitstreamVeraSans-Roman-30"/>
       <use x="127.24609375" xlink:href="#BitstreamVeraSans-Roman-30"/>
      </g>
     </g>
    </g>
    <g id="xtick_6">
     <g id="line2d_13">
      <g>
       <use style="stroke:#000000;stroke-width:0.5;" x="518.4" xlink:href="#m785f9535c6" y="388.8"/>
      </g>
     </g>
     <g id="line2d_14">
      <g>
       <use style="stroke:#000000;stroke-width:0.5;" x="518.4" xlink:href="#mfa0f1a80db" y="43.2"/>
      </g>
     </g>
     <g id="text_6">
      <!-- 500 -->
      <defs>
       <path d="M 10.796875 72.90625 
L 49.515625 72.90625 
L 49.515625 64.59375 
L 19.828125 64.59375 
L 19.828125 46.734375 
Q 21.96875 47.46875 24.109375 47.828125 
Q 26.265625 48.1875 28.421875 48.1875 
Q 40.625 48.1875 47.75 41.5 
Q 54.890625 34.8125 54.890625 23.390625 
Q 54.890625 11.625 47.5625 5.09375 
Q 40.234375 -1.421875 26.90625 -1.421875 
Q 22.3125 -1.421875 17.546875 -0.640625 
Q 12.796875 0.140625 7.71875 1.703125 
L 7.71875 11.625 
Q 12.109375 9.234375 16.796875 8.0625 
Q 21.484375 6.890625 26.703125 6.890625 
Q 35.15625 6.890625 40.078125 11.328125 
Q 45.015625 15.765625 45.015625 23.390625 
Q 45.015625 31 40.078125 35.4375 
Q 35.15625 39.890625 26.703125 39.890625 
Q 22.75 39.890625 18.8125 39.015625 
Q 14.890625 38.140625 10.796875 36.28125 
z
" id="BitstreamVeraSans-Roman-35"/>
      </defs>
      <g transform="translate(506.9475 401.918125)scale(0.12 -0.12)">
       <use xlink:href="#BitstreamVeraSans-Roman-35"/>
       <use x="63.623046875" xlink:href="#BitstreamVeraSans-Roman-30"/>
       <use x="127.24609375" xlink:href="#BitstreamVeraSans-Roman-30"/>
      </g>
     </g>
    </g>
    <g id="text_7">
     <!-- Degree -->
     <defs>
      <path d="M 56.203125 29.59375 
L 56.203125 25.203125 
L 14.890625 25.203125 
Q 15.484375 15.921875 20.484375 11.0625 
Q 25.484375 6.203125 34.421875 6.203125 
Q 39.59375 6.203125 44.453125 7.46875 
Q 49.3125 8.734375 54.109375 11.28125 
L 54.109375 2.78125 
Q 49.265625 0.734375 44.1875 -0.34375 
Q 39.109375 -1.421875 33.890625 -1.421875 
Q 20.796875 -1.421875 13.15625 6.1875 
Q 5.515625 13.8125 5.515625 26.8125 
Q 5.515625 40.234375 12.765625 48.109375 
Q 20.015625 56 32.328125 56 
Q 43.359375 56 49.78125 48.890625 
Q 56.203125 41.796875 56.203125 29.59375 
M 47.21875 32.234375 
Q 47.125 39.59375 43.09375 43.984375 
Q 39.0625 48.390625 32.421875 48.390625 
Q 24.90625 48.390625 20.390625 44.140625 
Q 15.875 39.890625 15.1875 32.171875 
z
" id="BitstreamVeraSans-Roman-65"/>
      <path d="M 45.40625 27.984375 
Q 45.40625 37.75 41.375 43.109375 
Q 37.359375 48.484375 30.078125 48.484375 
Q 22.859375 48.484375 18.828125 43.109375 
Q 14.796875 37.75 14.796875 27.984375 
Q 14.796875 18.265625 18.828125 12.890625 
Q 22.859375 7.515625 30.078125 7.515625 
Q 37.359375 7.515625 41.375 12.890625 
Q 45.40625 18.265625 45.40625 27.984375 
M 54.390625 6.78125 
Q 54.390625 -7.171875 48.1875 -13.984375 
Q 42 -20.796875 29.203125 -20.796875 
Q 24.46875 -20.796875 20.265625 -20.09375 
Q 16.0625 -19.390625 12.109375 -17.921875 
L 12.109375 -9.1875 
Q 16.0625 -11.328125 19.921875 -12.34375 
Q 23.78125 -13.375 27.78125 -13.375 
Q 36.625 -13.375 41.015625 -8.765625 
Q 45.40625 -4.15625 45.40625 5.171875 
L 45.40625 9.625 
Q 42.625 4.78125 38.28125 2.390625 
Q 33.9375 0 27.875 0 
Q 17.828125 0 11.671875 7.65625 
Q 5.515625 15.328125 5.515625 27.984375 
Q 5.515625 40.671875 11.671875 48.328125 
Q 17.828125 56 27.875 56 
Q 33.9375 56 38.28125 53.609375 
Q 42.625 51.21875 45.40625 46.390625 
L 45.40625 54.6875 
L 54.390625 54.6875 
z
" id="BitstreamVeraSans-Roman-67"/>
      <path d="M 19.671875 64.796875 
L 19.671875 8.109375 
L 31.59375 8.109375 
Q 46.6875 8.109375 53.6875 14.9375 
Q 60.6875 21.78125 60.6875 36.53125 
Q 60.6875 51.171875 53.6875 57.984375 
Q 46.6875 64.796875 31.59375 64.796875 
z
M 9.8125 72.90625 
L 30.078125 72.90625 
Q 51.265625 72.90625 61.171875 64.09375 
Q 71.09375 55.28125 71.09375 36.53125 
Q 71.09375 17.671875 61.125 8.828125 
Q 51.171875 0 30.078125 0 
L 9.8125 0 
z
" id="BitstreamVeraSans-Roman-44"/>
      <path d="M 41.109375 46.296875 
Q 39.59375 47.171875 37.8125 47.578125 
Q 36.03125 48 33.890625 48 
Q 26.265625 48 22.1875 43.046875 
Q 18.109375 38.09375 18.109375 28.8125 
L 18.109375 0 
L 9.078125 0 
L 9.078125 54.6875 
L 18.109375 54.6875 
L 18.109375 46.1875 
Q 20.953125 51.171875 25.484375 53.578125 
Q 30.03125 56 36.53125 56 
Q 37.453125 56 38.578125 55.875 
Q 39.703125 55.765625 41.0625 55.515625 
z
" id="BitstreamVeraSans-Roman-72"/>
     </defs>
     <g transform="translate(273.230625 418.531875)scale(0.12 -0.12)">
      <use xlink:href="#BitstreamVeraSans-Roman-44"/>
      <use x="77.001953125" xlink:href="#BitstreamVeraSans-Roman-65"/>
      <use x="138.525390625" xlink:href="#BitstreamVeraSans-Roman-67"/>
      <use x="202.001953125" xlink:href="#BitstreamVeraSans-Roman-72"/>
      <use x="243.083984375" xlink:href="#BitstreamVeraSans-Roman-65"/>
      <use x="304.607421875" xlink:href="#BitstreamVeraSans-Roman-65"/>
     </g>
    </g>
   </g>
   <g id="matplotlib.axis_2">
    <g id="ytick_1">
     <g id="line2d_15">
      <defs>
       <path d="M 0 0 
L 4 0 
" id="m8d3af276b0" style="stroke:#000000;stroke-width:0.5;"/>
      </defs>
      <g>
       <use style="stroke:#000000;stroke-width:0.5;" x="72.0" xlink:href="#m8d3af276b0" y="388.8"/>
      </g>
     </g>
     <g id="line2d_16">
      <defs>
       <path d="M 0 0 
L -4 0 
" id="me74ceaf1dd" style="stroke:#000000;stroke-width:0.5;"/>
      </defs>
      <g>
       <use style="stroke:#000000;stroke-width:0.5;" x="518.4" xlink:href="#me74ceaf1dd" y="388.8"/>
      </g>
     </g>
     <g id="text_8">
      <!-- 0 -->
      <g transform="translate(60.365 392.11125)scale(0.12 -0.12)">
       <use xlink:href="#BitstreamVeraSans-Roman-30"/>
      </g>
     </g>
    </g>
    <g id="ytick_2">
     <g id="line2d_17">
      <g>
       <use style="stroke:#000000;stroke-width:0.5;" x="72.0" xlink:href="#m8d3af276b0" y="319.68"/>
      </g>
     </g>
     <g id="line2d_18">
      <g>
       <use style="stroke:#000000;stroke-width:0.5;" x="518.4" xlink:href="#me74ceaf1dd" y="319.68"/>
      </g>
     </g>
     <g id="text_9">
      <!-- 200 -->
      <g transform="translate(45.095 322.99125)scale(0.12 -0.12)">
       <use xlink:href="#BitstreamVeraSans-Roman-32"/>
       <use x="63.623046875" xlink:href="#BitstreamVeraSans-Roman-30"/>
       <use x="127.24609375" xlink:href="#BitstreamVeraSans-Roman-30"/>
      </g>
     </g>
    </g>
    <g id="ytick_3">
     <g id="line2d_19">
      <g>
       <use style="stroke:#000000;stroke-width:0.5;" x="72.0" xlink:href="#m8d3af276b0" y="250.56"/>
      </g>
     </g>
     <g id="line2d_20">
      <g>
       <use style="stroke:#000000;stroke-width:0.5;" x="518.4" xlink:href="#me74ceaf1dd" y="250.56"/>
      </g>
     </g>
     <g id="text_10">
      <!-- 400 -->
      <g transform="translate(45.095 253.87125)scale(0.12 -0.12)">
       <use xlink:href="#BitstreamVeraSans-Roman-34"/>
       <use x="63.623046875" xlink:href="#BitstreamVeraSans-Roman-30"/>
       <use x="127.24609375" xlink:href="#BitstreamVeraSans-Roman-30"/>
      </g>
     </g>
    </g>
    <g id="ytick_4">
     <g id="line2d_21">
      <g>
       <use style="stroke:#000000;stroke-width:0.5;" x="72.0" xlink:href="#m8d3af276b0" y="181.44"/>
      </g>
     </g>
     <g id="line2d_22">
      <g>
       <use style="stroke:#000000;stroke-width:0.5;" x="518.4" xlink:href="#me74ceaf1dd" y="181.44"/>
      </g>
     </g>
     <g id="text_11">
      <!-- 600 -->
      <defs>
       <path d="M 33.015625 40.375 
Q 26.375 40.375 22.484375 35.828125 
Q 18.609375 31.296875 18.609375 23.390625 
Q 18.609375 15.53125 22.484375 10.953125 
Q 26.375 6.390625 33.015625 6.390625 
Q 39.65625 6.390625 43.53125 10.953125 
Q 47.40625 15.53125 47.40625 23.390625 
Q 47.40625 31.296875 43.53125 35.828125 
Q 39.65625 40.375 33.015625 40.375 
M 52.59375 71.296875 
L 52.59375 62.3125 
Q 48.875 64.0625 45.09375 64.984375 
Q 41.3125 65.921875 37.59375 65.921875 
Q 27.828125 65.921875 22.671875 59.328125 
Q 17.53125 52.734375 16.796875 39.40625 
Q 19.671875 43.65625 24.015625 45.921875 
Q 28.375 48.1875 33.59375 48.1875 
Q 44.578125 48.1875 50.953125 41.515625 
Q 57.328125 34.859375 57.328125 23.390625 
Q 57.328125 12.15625 50.6875 5.359375 
Q 44.046875 -1.421875 33.015625 -1.421875 
Q 20.359375 -1.421875 13.671875 8.265625 
Q 6.984375 17.96875 6.984375 36.375 
Q 6.984375 53.65625 15.1875 63.9375 
Q 23.390625 74.21875 37.203125 74.21875 
Q 40.921875 74.21875 44.703125 73.484375 
Q 48.484375 72.75 52.59375 71.296875 
" id="BitstreamVeraSans-Roman-36"/>
      </defs>
      <g transform="translate(45.095 184.75125)scale(0.12 -0.12)">
       <use xlink:href="#BitstreamVeraSans-Roman-36"/>
       <use x="63.623046875" xlink:href="#BitstreamVeraSans-Roman-30"/>
       <use x="127.24609375" xlink:href="#BitstreamVeraSans-Roman-30"/>
      </g>
     </g>
    </g>
    <g id="ytick_5">
     <g id="line2d_23">
      <g>
       <use style="stroke:#000000;stroke-width:0.5;" x="72.0" xlink:href="#m8d3af276b0" y="112.32"/>
      </g>
     </g>
     <g id="line2d_24">
      <g>
       <use style="stroke:#000000;stroke-width:0.5;" x="518.4" xlink:href="#me74ceaf1dd" y="112.32"/>
      </g>
     </g>
     <g id="text_12">
      <!-- 800 -->
      <defs>
       <path d="M 31.78125 34.625 
Q 24.75 34.625 20.71875 30.859375 
Q 16.703125 27.09375 16.703125 20.515625 
Q 16.703125 13.921875 20.71875 10.15625 
Q 24.75 6.390625 31.78125 6.390625 
Q 38.8125 6.390625 42.859375 10.171875 
Q 46.921875 13.96875 46.921875 20.515625 
Q 46.921875 27.09375 42.890625 30.859375 
Q 38.875 34.625 31.78125 34.625 
M 21.921875 38.8125 
Q 15.578125 40.375 12.03125 44.71875 
Q 8.5 49.078125 8.5 55.328125 
Q 8.5 64.0625 14.71875 69.140625 
Q 20.953125 74.21875 31.78125 74.21875 
Q 42.671875 74.21875 48.875 69.140625 
Q 55.078125 64.0625 55.078125 55.328125 
Q 55.078125 49.078125 51.53125 44.71875 
Q 48 40.375 41.703125 38.8125 
Q 48.828125 37.15625 52.796875 32.3125 
Q 56.78125 27.484375 56.78125 20.515625 
Q 56.78125 9.90625 50.3125 4.234375 
Q 43.84375 -1.421875 31.78125 -1.421875 
Q 19.734375 -1.421875 13.25 4.234375 
Q 6.78125 9.90625 6.78125 20.515625 
Q 6.78125 27.484375 10.78125 32.3125 
Q 14.796875 37.15625 21.921875 38.8125 
M 18.3125 54.390625 
Q 18.3125 48.734375 21.84375 45.5625 
Q 25.390625 42.390625 31.78125 42.390625 
Q 38.140625 42.390625 41.71875 45.5625 
Q 45.3125 48.734375 45.3125 54.390625 
Q 45.3125 60.0625 41.71875 63.234375 
Q 38.140625 66.40625 31.78125 66.40625 
Q 25.390625 66.40625 21.84375 63.234375 
Q 18.3125 60.0625 18.3125 54.390625 
" id="BitstreamVeraSans-Roman-38"/>
      </defs>
      <g transform="translate(45.095 115.63125)scale(0.12 -0.12)">
       <use xlink:href="#BitstreamVeraSans-Roman-38"/>
       <use x="63.623046875" xlink:href="#BitstreamVeraSans-Roman-30"/>
       <use x="127.24609375" xlink:href="#BitstreamVeraSans-Roman-30"/>
      </g>
     </g>
    </g>
    <g id="ytick_6">
     <g id="line2d_25">
      <g>
       <use style="stroke:#000000;stroke-width:0.5;" x="72.0" xlink:href="#m8d3af276b0" y="43.2"/>
      </g>
     </g>
     <g id="line2d_26">
      <g>
       <use style="stroke:#000000;stroke-width:0.5;" x="518.4" xlink:href="#me74ceaf1dd" y="43.2"/>
      </g>
     </g>
     <g id="text_13">
      <!-- 1000 -->
      <g transform="translate(37.46 46.51125)scale(0.12 -0.12)">
       <use xlink:href="#BitstreamVeraSans-Roman-31"/>
       <use x="63.623046875" xlink:href="#BitstreamVeraSans-Roman-30"/>
       <use x="127.24609375" xlink:href="#BitstreamVeraSans-Roman-30"/>
       <use x="190.869140625" xlink:href="#BitstreamVeraSans-Roman-30"/>
      </g>
     </g>
    </g>
    <g id="text_14">
     <!-- Count -->
     <defs>
      <path d="M 54.890625 33.015625 
L 54.890625 0 
L 45.90625 0 
L 45.90625 32.71875 
Q 45.90625 40.484375 42.875 44.328125 
Q 39.84375 48.1875 33.796875 48.1875 
Q 26.515625 48.1875 22.3125 43.546875 
Q 18.109375 38.921875 18.109375 30.90625 
L 18.109375 0 
L 9.078125 0 
L 9.078125 54.6875 
L 18.109375 54.6875 
L 18.109375 46.1875 
Q 21.34375 51.125 25.703125 53.5625 
Q 30.078125 56 35.796875 56 
Q 45.21875 56 50.046875 50.171875 
Q 54.890625 44.34375 54.890625 33.015625 
" id="BitstreamVeraSans-Roman-6e"/>
      <path d="M 8.5 21.578125 
L 8.5 54.6875 
L 17.484375 54.6875 
L 17.484375 21.921875 
Q 17.484375 14.15625 20.5 10.265625 
Q 23.53125 6.390625 29.59375 6.390625 
Q 36.859375 6.390625 41.078125 11.03125 
Q 45.3125 15.671875 45.3125 23.6875 
L 45.3125 54.6875 
L 54.296875 54.6875 
L 54.296875 0 
L 45.3125 0 
L 45.3125 8.40625 
Q 42.046875 3.421875 37.71875 1 
Q 33.40625 -1.421875 27.6875 -1.421875 
Q 18.265625 -1.421875 13.375 4.4375 
Q 8.5 10.296875 8.5 21.578125 
" id="BitstreamVeraSans-Roman-75"/>
      <path d="M 30.609375 48.390625 
Q 23.390625 48.390625 19.1875 42.75 
Q 14.984375 37.109375 14.984375 27.296875 
Q 14.984375 17.484375 19.15625 11.84375 
Q 23.34375 6.203125 30.609375 6.203125 
Q 37.796875 6.203125 41.984375 11.859375 
Q 46.1875 17.53125 46.1875 27.296875 
Q 46.1875 37.015625 41.984375 42.703125 
Q 37.796875 48.390625 30.609375 48.390625 
M 30.609375 56 
Q 42.328125 56 49.015625 48.375 
Q 55.71875 40.765625 55.71875 27.296875 
Q 55.71875 13.875 49.015625 6.21875 
Q 42.328125 -1.421875 30.609375 -1.421875 
Q 18.84375 -1.421875 12.171875 6.21875 
Q 5.515625 13.875 5.515625 27.296875 
Q 5.515625 40.765625 12.171875 48.375 
Q 18.84375 56 30.609375 56 
" id="BitstreamVeraSans-Roman-6f"/>
      <path d="M 64.40625 67.28125 
L 64.40625 56.890625 
Q 59.421875 61.53125 53.78125 63.8125 
Q 48.140625 66.109375 41.796875 66.109375 
Q 29.296875 66.109375 22.65625 58.46875 
Q 16.015625 50.828125 16.015625 36.375 
Q 16.015625 21.96875 22.65625 14.328125 
Q 29.296875 6.6875 41.796875 6.6875 
Q 48.140625 6.6875 53.78125 8.984375 
Q 59.421875 11.28125 64.40625 15.921875 
L 64.40625 5.609375 
Q 59.234375 2.09375 53.4375 0.328125 
Q 47.65625 -1.421875 41.21875 -1.421875 
Q 24.65625 -1.421875 15.125 8.703125 
Q 5.609375 18.84375 5.609375 36.375 
Q 5.609375 53.953125 15.125 64.078125 
Q 24.65625 74.21875 41.21875 74.21875 
Q 47.75 74.21875 53.53125 72.484375 
Q 59.328125 70.75 64.40625 67.28125 
" id="BitstreamVeraSans-Roman-43"/>
      <path d="M 18.3125 70.21875 
L 18.3125 54.6875 
L 36.8125 54.6875 
L 36.8125 47.703125 
L 18.3125 47.703125 
L 18.3125 18.015625 
Q 18.3125 11.328125 20.140625 9.421875 
Q 21.96875 7.515625 27.59375 7.515625 
L 36.8125 7.515625 
L 36.8125 0 
L 27.59375 0 
Q 17.1875 0 13.234375 3.875 
Q 9.28125 7.765625 9.28125 18.015625 
L 9.28125 47.703125 
L 2.6875 47.703125 
L 2.6875 54.6875 
L 9.28125 54.6875 
L 9.28125 70.21875 
z
" id="BitstreamVeraSans-Roman-74"/>
     </defs>
     <g transform="translate(29.964375 233.818125)rotate(-90.0)scale(0.12 -0.12)">
      <use xlink:href="#BitstreamVeraSans-Roman-43"/>
      <use x="69.82421875" xlink:href="#BitstreamVeraSans-Roman-6f"/>
      <use x="131.005859375" xlink:href="#BitstreamVeraSans-Roman-75"/>
      <use x="194.384765625" xlink:href="#BitstreamVeraSans-Roman-6e"/>
      <use x="257.763671875" xlink:href="#BitstreamVeraSans-Roman-74"/>
     </g>
    </g>
   </g>
   <g id="legend_1">
    <g id="patch_7">
     <path d="M 295.83675 96.993 
L 511.2 96.993 
L 511.2 50.4 
L 295.83675 50.4 
z
" style="fill:#ffffff;stroke:#000000;stroke-linejoin:miter;"/>
    </g>
    <g id="line2d_27">
     <path d="M 305.91675 62.06175 
L 326.07675 62.06175 
" style="fill:none;stroke:#0000ff;stroke-linecap:square;"/>
    </g>
    <g id="line2d_28"/>
    <g id="text_15">
     <!-- Indegree distribution -->
     <defs>
      <path id="BitstreamVeraSans-Roman-20"/>
      <path d="M 9.421875 54.6875 
L 18.40625 54.6875 
L 18.40625 0 
L 9.421875 0 
z
M 9.421875 75.984375 
L 18.40625 75.984375 
L 18.40625 64.59375 
L 9.421875 64.59375 
z
" id="BitstreamVeraSans-Roman-69"/>
      <path d="M 45.40625 46.390625 
L 45.40625 75.984375 
L 54.390625 75.984375 
L 54.390625 0 
L 45.40625 0 
L 45.40625 8.203125 
Q 42.578125 3.328125 38.25 0.953125 
Q 33.9375 -1.421875 27.875 -1.421875 
Q 17.96875 -1.421875 11.734375 6.484375 
Q 5.515625 14.40625 5.515625 27.296875 
Q 5.515625 40.1875 11.734375 48.09375 
Q 17.96875 56 27.875 56 
Q 33.9375 56 38.25 53.625 
Q 42.578125 51.265625 45.40625 46.390625 
M 14.796875 27.296875 
Q 14.796875 17.390625 18.875 11.75 
Q 22.953125 6.109375 30.078125 6.109375 
Q 37.203125 6.109375 41.296875 11.75 
Q 45.40625 17.390625 45.40625 27.296875 
Q 45.40625 37.203125 41.296875 42.84375 
Q 37.203125 48.484375 30.078125 48.484375 
Q 22.953125 48.484375 18.875 42.84375 
Q 14.796875 37.203125 14.796875 27.296875 
" id="BitstreamVeraSans-Roman-64"/>
      <path d="M 44.28125 53.078125 
L 44.28125 44.578125 
Q 40.484375 46.53125 36.375 47.5 
Q 32.28125 48.484375 27.875 48.484375 
Q 21.1875 48.484375 17.84375 46.4375 
Q 14.5 44.390625 14.5 40.28125 
Q 14.5 37.15625 16.890625 35.375 
Q 19.28125 33.59375 26.515625 31.984375 
L 29.59375 31.296875 
Q 39.15625 29.25 43.1875 25.515625 
Q 47.21875 21.78125 47.21875 15.09375 
Q 47.21875 7.46875 41.1875 3.015625 
Q 35.15625 -1.421875 24.609375 -1.421875 
Q 20.21875 -1.421875 15.453125 -0.5625 
Q 10.6875 0.296875 5.421875 2 
L 5.421875 11.28125 
Q 10.40625 8.6875 15.234375 7.390625 
Q 20.0625 6.109375 24.8125 6.109375 
Q 31.15625 6.109375 34.5625 8.28125 
Q 37.984375 10.453125 37.984375 14.40625 
Q 37.984375 18.0625 35.515625 20.015625 
Q 33.0625 21.96875 24.703125 23.78125 
L 21.578125 24.515625 
Q 13.234375 26.265625 9.515625 29.90625 
Q 5.8125 33.546875 5.8125 39.890625 
Q 5.8125 47.609375 11.28125 51.796875 
Q 16.75 56 26.8125 56 
Q 31.78125 56 36.171875 55.265625 
Q 40.578125 54.546875 44.28125 53.078125 
" id="BitstreamVeraSans-Roman-73"/>
      <path d="M 9.8125 72.90625 
L 19.671875 72.90625 
L 19.671875 0 
L 9.8125 0 
z
" id="BitstreamVeraSans-Roman-49"/>
      <path d="M 48.6875 27.296875 
Q 48.6875 37.203125 44.609375 42.84375 
Q 40.53125 48.484375 33.40625 48.484375 
Q 26.265625 48.484375 22.1875 42.84375 
Q 18.109375 37.203125 18.109375 27.296875 
Q 18.109375 17.390625 22.1875 11.75 
Q 26.265625 6.109375 33.40625 6.109375 
Q 40.53125 6.109375 44.609375 11.75 
Q 48.6875 17.390625 48.6875 27.296875 
M 18.109375 46.390625 
Q 20.953125 51.265625 25.265625 53.625 
Q 29.59375 56 35.59375 56 
Q 45.5625 56 51.78125 48.09375 
Q 58.015625 40.1875 58.015625 27.296875 
Q 58.015625 14.40625 51.78125 6.484375 
Q 45.5625 -1.421875 35.59375 -1.421875 
Q 29.59375 -1.421875 25.265625 0.953125 
Q 20.953125 3.328125 18.109375 8.203125 
L 18.109375 0 
L 9.078125 0 
L 9.078125 75.984375 
L 18.109375 75.984375 
z
" id="BitstreamVeraSans-Roman-62"/>
     </defs>
     <g transform="translate(341.91675 67.10175)scale(0.144 -0.144)">
      <use xlink:href="#BitstreamVeraSans-Roman-49"/>
      <use x="29.4921875" xlink:href="#BitstreamVeraSans-Roman-6e"/>
      <use x="92.87109375" xlink:href="#BitstreamVeraSans-Roman-64"/>
      <use x="156.34765625" xlink:href="#BitstreamVeraSans-Roman-65"/>
      <use x="217.87109375" xlink:href="#BitstreamVeraSans-Roman-67"/>
      <use x="281.34765625" xlink:href="#BitstreamVeraSans-Roman-72"/>
      <use x="322.4296875" xlink:href="#BitstreamVeraSans-Roman-65"/>
      <use x="383.953125" xlink:href="#BitstreamVeraSans-Roman-65"/>
      <use x="445.4765625" xlink:href="#BitstreamVeraSans-Roman-20"/>
      <use x="477.263671875" xlink:href="#BitstreamVeraSans-Roman-64"/>
      <use x="540.740234375" xlink:href="#BitstreamVeraSans-Roman-69"/>
      <use x="568.5234375" xlink:href="#BitstreamVeraSans-Roman-73"/>
      <use x="620.623046875" xlink:href="#BitstreamVeraSans-Roman-74"/>
      <use x="659.83203125" xlink:href="#BitstreamVeraSans-Roman-72"/>
      <use x="700.9453125" xlink:href="#BitstreamVeraSans-Roman-69"/>
      <use x="728.728515625" xlink:href="#BitstreamVeraSans-Roman-62"/>
      <use x="792.205078125" xlink:href="#BitstreamVeraSans-Roman-75"/>
      <use x="855.583984375" xlink:href="#BitstreamVeraSans-Roman-74"/>
      <use x="894.79296875" xlink:href="#BitstreamVeraSans-Roman-69"/>
      <use x="922.576171875" xlink:href="#BitstreamVeraSans-Roman-6f"/>
      <use x="983.7578125" xlink:href="#BitstreamVeraSans-Roman-6e"/>
     </g>
    </g>
    <g id="line2d_29">
     <path d="M 305.91675 83.19825 
L 326.07675 83.19825 
" style="fill:none;stroke:#008000;stroke-linecap:square;"/>
    </g>
    <g id="line2d_30"/>
    <g id="text_16">
     <!-- Outdegree distribution -->
     <defs>
      <path d="M 39.40625 66.21875 
Q 28.65625 66.21875 22.328125 58.203125 
Q 16.015625 50.203125 16.015625 36.375 
Q 16.015625 22.609375 22.328125 14.59375 
Q 28.65625 6.59375 39.40625 6.59375 
Q 50.140625 6.59375 56.421875 14.59375 
Q 62.703125 22.609375 62.703125 36.375 
Q 62.703125 50.203125 56.421875 58.203125 
Q 50.140625 66.21875 39.40625 66.21875 
M 39.40625 74.21875 
Q 54.734375 74.21875 63.90625 63.9375 
Q 73.09375 53.65625 73.09375 36.375 
Q 73.09375 19.140625 63.90625 8.859375 
Q 54.734375 -1.421875 39.40625 -1.421875 
Q 24.03125 -1.421875 14.8125 8.828125 
Q 5.609375 19.09375 5.609375 36.375 
Q 5.609375 53.65625 14.8125 63.9375 
Q 24.03125 74.21875 39.40625 74.21875 
" id="BitstreamVeraSans-Roman-4f"/>
     </defs>
     <g transform="translate(341.91675 88.23825)scale(0.144 -0.144)">
      <use xlink:href="#BitstreamVeraSans-Roman-4f"/>
      <use x="78.7109375" xlink:href="#BitstreamVeraSans-Roman-75"/>
      <use x="142.08984375" xlink:href="#BitstreamVeraSans-Roman-74"/>
      <use x="181.298828125" xlink:href="#BitstreamVeraSans-Roman-64"/>
      <use x="244.775390625" xlink:href="#BitstreamVeraSans-Roman-65"/>
      <use x="306.298828125" xlink:href="#BitstreamVeraSans-Roman-67"/>
      <use x="369.775390625" xlink:href="#BitstreamVeraSans-Roman-72"/>
      <use x="410.857421875" xlink:href="#BitstreamVeraSans-Roman-65"/>
      <use x="472.380859375" xlink:href="#BitstreamVeraSans-Roman-65"/>
      <use x="533.904296875" xlink:href="#BitstreamVeraSans-Roman-20"/>
      <use x="565.69140625" xlink:href="#BitstreamVeraSans-Roman-64"/>
      <use x="629.16796875" xlink:href="#BitstreamVeraSans-Roman-69"/>
      <use x="656.951171875" xlink:href="#BitstreamVeraSans-Roman-73"/>
      <use x="709.05078125" xlink:href="#BitstreamVeraSans-Roman-74"/>
      <use x="748.259765625" xlink:href="#BitstreamVeraSans-Roman-72"/>
      <use x="789.373046875" xlink:href="#BitstreamVeraSans-Roman-69"/>
      <use x="817.15625" xlink:href="#BitstreamVeraSans-Roman-62"/>
      <use x="880.6328125" xlink:href="#BitstreamVeraSans-Roman-75"/>
      <use x="944.01171875" xlink:href="#BitstreamVeraSans-Roman-74"/>
      <use x="983.220703125" xlink:href="#BitstreamVeraSans-Roman-69"/>
      <use x="1011.00390625" xlink:href="#BitstreamVeraSans-Roman-6f"/>
      <use x="1072.18554688" xlink:href="#BitstreamVeraSans-Roman-6e"/>
     </g>
    </g>
   </g>
  </g>
 </g>
 <defs>
  <clipPath id="p003074c101">
   <rect height="345.6" width="446.4" x="72.0" y="43.2"/>
  </clipPath>
 </defs>
</svg>
